<?xml version="1.0" encoding="utf-8"?>
<!-- Generator: Adobe Illustrator 27.1.1, SVG Export Plug-In . SVG Version: 6.00 Build 0)  -->
<svg version="1.1" id="Layer_1" xmlns="http://www.w3.org/2000/svg" xmlns:xlink="http://www.w3.org/1999/xlink" x="0px" y="0px"
	 viewBox="0 0 512 512" style="enable-background:new 0 0 512 512;" xml:space="preserve">
<g>
	<path d="M265.14,0h-18.29c-45.37,0-82.29,36.9-82.29,82.26v347.48c0,45.36,36.92,82.26,82.29,82.26h18.29
		c45.37,0,82.29-36.9,82.29-82.26V82.26C347.43,36.9,310.51,0,265.14,0z M329.14,429.74c0,35.28-28.71,63.97-64,63.97h-18.29
		c-35.29,0-64-28.7-64-63.97V82.26c0-35.28,28.71-63.97,64-63.97h18.29c35.29,0,64,28.7,64,63.97V429.74z"/>
	<path d="M256,329.14c-25.21,0-45.71,20.51-45.71,45.71c0,25.21,20.51,45.71,45.71,45.71s45.71-20.51,45.71-45.71
		C301.71,349.65,281.21,329.14,256,329.14z M256,402.29c-15.13,0-27.43-12.3-27.43-27.43c0-15.12,12.3-27.43,27.43-27.43
		c15.12,0,27.43,12.3,27.43,27.43C283.43,389.98,271.12,402.29,256,402.29z"/>
	<rect x="219.43" y="82.29" width="27.43" height="18.29"/>
	<rect x="265.14" y="82.29" width="27.43" height="18.29"/>
	<rect x="219.43" y="118.86" width="27.43" height="18.29"/>
	<rect x="265.14" y="118.86" width="27.43" height="18.29"/>
	<rect x="219.43" y="155.43" width="27.43" height="18.29"/>
	<rect x="265.14" y="155.43" width="27.43" height="18.29"/>
	<rect x="219.43" y="192" width="27.43" height="18.29"/>
	<rect x="265.14" y="192" width="27.43" height="18.29"/>
	<rect x="219.43" y="228.57" width="27.43" height="18.29"/>
	<rect x="265.14" y="228.57" width="27.43" height="18.29"/>
	<rect x="219.43" y="265.14" width="27.43" height="18.29"/>
	<rect x="265.14" y="265.14" width="27.43" height="18.29"/>
</g>
</svg>
